<svg width="1436" height="461" viewBox="0 0 1436 461" fill="none" xmlns="http://www.w3.org/2000/svg">
<path d="M83.5095 0.541566C53.3372 4.39535 27.4886 22.0664 14.5174 47.5389C8.3137 59.5702 2.67402 78.3692 0.700131 93.3143C-0.70979 103.936 0.136162 138.996 2.11005 149.993C6.90378 176.782 14.5173 203.758 23.5408 225.189C25.6087 230.077 28.0526 236.186 28.9925 238.818C29.9325 241.356 33.1283 249.252 36.0421 256.207C43.1857 273.032 56.063 309.596 62.2667 330.463C65.9324 343.058 71.3841 363.831 76.9298 387.33C86.7053 428.123 94.3188 446.734 104.752 454.912C109.358 458.578 118.569 461.398 123.363 460.552C130.131 459.424 137.18 455.57 142.726 449.93C150.34 442.129 155.791 433.387 167.259 410.828C172.804 399.831 178.162 389.586 179.102 388.082C180.136 386.672 182.58 382.912 184.554 379.81C189.065 372.761 204.763 356.969 214.162 350.014C220.366 345.408 238.883 334.693 253.64 327.079C271.311 318.056 295.468 303.58 307.781 294.651C323.666 283.278 342.935 265.043 354.778 250.567C371.227 230.359 381.755 208.646 387.112 184.113C389.462 173.21 389.744 155.257 387.676 145.669C385.044 133.544 379.687 119.915 376.397 117.189C374.517 115.591 374.423 115.497 377.337 123.769C382.695 139.278 382.413 167.194 376.585 190.881C371.791 210.902 366.058 223.967 355.154 240.51C340.585 262.505 311.541 286.567 275.729 306.118C269.337 309.596 240.575 323.883 240.011 323.883C238.507 323.883 211.342 337.607 204.951 341.554C189.441 351.142 175.718 364.207 166.319 377.93C163.687 381.878 161.525 385.262 161.525 385.45C161.525 385.732 160.491 387.518 159.363 389.492C158.141 391.371 153.63 399.737 149.4 408.009C137.462 431.131 128.345 442.317 121.389 442.317C116.314 442.317 111.238 437.335 108.042 429.157C107.29 427.371 106.162 424.552 105.504 423.048C103.436 418.16 99.6765 405.565 97.2327 395.319C85.6713 347.006 80.0316 325.951 70.8202 295.685C66.8724 282.432 60.3868 265.137 49.2014 237.878C36.6061 206.954 29.2745 182.421 24.5748 155.163C22.4129 142.755 22.1309 138.432 22.0369 119.445C22.0369 100.27 22.2249 96.6981 24.1988 87.9566C27.8646 71.3195 32.4703 59.3822 39.7079 48.0089C44.3137 40.7713 46.7575 38.1394 55.2171 31.3718C68.5643 20.6564 79.8437 16.5207 97.8906 15.8627C112.93 15.2047 128.815 17.6486 143.666 22.8183C154.475 26.5781 161.995 29.3979 173.744 33.9097C188.502 39.6433 208.24 46.223 223.374 50.2648C234.089 53.2726 241.327 55.6225 265.859 64.458C277.984 68.7817 297.441 73.8574 332.125 81.847C362.674 88.8026 381.003 97.6381 394.068 111.455C402.245 120.197 406.193 128.28 408.355 141.064C410.705 155.257 409.013 175.654 403.937 192.197C401.306 200.938 393.034 222.557 389.368 230.359C387.676 233.93 382.883 244.27 378.653 253.293C359.29 294.745 346.507 333.377 332.595 392.499C324.23 428.311 315.864 444.29 306.653 442.505C303.175 441.847 295.655 434.703 290.956 427.465C287.572 422.296 280.616 409.606 272.627 393.909C268.679 386.202 256.742 369.471 251.384 364.019C245.65 358.379 235.217 351.33 230.423 349.826C229.013 349.356 227.227 350.014 224.126 352.27C221.776 353.868 219.802 355.559 219.802 355.935C219.802 356.217 222.34 358.097 225.347 359.977C231.833 363.925 238.789 371.257 245.18 380.844C250.82 389.21 252.23 391.559 259.937 406.975C278.642 444.196 287.29 455.006 301.859 459.612C315.018 463.747 327.896 455.852 336.073 438.557C341.431 427.277 345.943 412.708 352.804 384.51C363.05 342.682 372.355 311.288 379.405 294.745C379.969 293.429 381.567 289.387 382.977 285.815C384.387 282.15 386.736 276.604 388.146 273.314C389.65 270.118 390.872 267.298 390.872 267.11C390.872 266.922 394.726 258.933 399.332 249.252C409.671 227.727 416.063 212.688 420.856 198.118C427.248 178.755 428 174.15 428 154.223C427.906 137.21 427.812 135.988 425.368 128.844C414.465 97.5441 388.522 81.847 333.065 73.2935C287.948 66.3379 285.41 65.8679 266.329 60.1342C252.888 56.1864 215.948 42.6512 205.985 38.0455C203.729 37.1055 201.755 36.2596 201.473 36.2596C201.191 36.2596 192.919 32.3118 182.956 27.4241C152.314 12.4789 135.301 5.80528 119.227 2.42147C108.982 0.259595 92.439 -0.680366 83.5095 0.541566ZM154.005 87.8626C142.068 91.5284 134.925 103.654 137.932 115.027C142.632 132.228 164.627 137.774 176.846 124.803C183.238 117.941 184.836 107.132 180.7 99.142C176.282 90.5885 163.217 85.0428 154.005 87.8626ZM269.337 107.695C259.844 110.515 253.828 122.171 256.46 132.134C259.844 144.729 273.755 150.745 286.162 144.917C301.295 137.868 300.261 114.839 284.47 108.259C280.71 106.662 273.661 106.38 269.337 107.695ZM138.872 138.15C133.139 139.654 125.901 144.447 123.175 148.489C114.716 160.99 117.442 191.727 130.507 230.171C133.045 237.69 135.489 244.646 136.052 245.586C136.616 246.526 138.59 251.037 140.376 255.643C143.196 262.599 151.75 279.988 155.415 286.191C161.995 297.377 169.139 307.528 180.888 322.849C181.452 323.601 182.392 323.883 182.956 323.507C183.614 323.131 183.332 321.439 182.204 318.432C179.196 310.724 176.658 297.565 175.53 283.654C174.308 268.614 174.872 224.343 176.47 212.97C178.632 197.46 184.46 176.312 186.622 176.312C186.998 176.312 190.193 179.319 193.765 183.079C197.243 186.745 200.157 189.565 200.345 189.377C204.011 184.113 206.737 181.293 210.496 178.943C213.034 177.44 215.102 175.936 215.102 175.654C215.102 175.372 213.316 173.21 211.154 170.766C208.898 168.228 204.481 161.742 201.191 156.291C190.569 138.432 182.11 134.108 166.319 138.526C159.551 140.5 159.457 140.5 152.408 138.62C144.23 136.552 144.606 136.552 138.872 138.15ZM253.264 153.659C247.53 156.009 245.274 158.077 240.857 165.314C238.977 168.51 236.063 172.74 234.559 174.714L231.833 178.192L235.029 181.763C236.721 183.643 238.789 186.651 239.447 188.343C240.951 191.821 241.797 192.009 245.65 189.471C247.248 188.437 249.222 187.591 250.068 187.591C254.768 187.591 260.219 205.262 262.663 228.197C265.201 253.011 263.603 278.672 258.34 299.633C256.178 307.904 256.084 309.784 257.494 309.784C260.126 309.784 273.097 293.523 280.428 281.116C294.81 256.583 304.303 232.05 309.943 204.698C313.796 185.993 313.984 171.706 310.601 164.562C306.089 154.975 298.945 151.121 288.136 152.343C279.958 153.283 274.225 153.283 264.919 152.437C259.092 151.967 257.118 152.155 253.264 153.659ZM213.692 182.139C205.703 184.959 201.849 194.735 205.609 202.724C208.616 209.022 213.034 211.56 220.836 211.56C228.449 211.56 231.363 209.868 234.653 203.476C237.379 198.306 236.909 192.573 233.337 187.497C229.577 182.045 220.836 179.695 213.692 182.139ZM201.379 217.481C196.397 219.831 193.859 223.215 191.603 230.547C189.253 238.066 189.159 249.064 191.227 257.335C193.107 264.855 194.611 266.641 197.149 264.291C198.935 262.693 199.029 262.787 200.063 268.144C202.319 279.612 203.071 282.338 206.643 292.395C212 307.434 217.452 320.405 218.58 320.781C221.682 321.815 235.969 286.943 239.541 269.366C240.669 264.103 241.421 261.941 241.891 262.975C242.924 265.607 244.804 264.949 247.248 261.095C249.128 258.087 249.41 256.207 249.786 246.15C250.162 231.487 248.658 225.941 242.83 220.583C238.225 216.353 234.089 215.225 227.509 216.259C222.434 217.105 220.93 217.105 211.812 216.259C206.455 215.789 204.575 216.071 201.379 217.481Z" fill="url(#paint0_linear_246_3)"/>
<path d="M446.15 123.8C448.65 123.9 451.85 124 455.75 124.1C459.65 124.2 463.55 124.25 467.45 124.25C472.35 124.25 477 124.2 481.4 124.1C485.8 124 488.9 123.95 490.7 123.95C502.5 123.95 511.3 126.15 517.1 130.55C523 134.95 525.95 140.6 525.95 147.5C525.95 151 525 154.5 523.1 158C521.3 161.5 518.35 164.65 514.25 167.45C510.25 170.25 505 172.35 498.5 173.75V174.05C507.3 174.85 514.25 176.65 519.35 179.45C524.55 182.15 528.25 185.4 530.45 189.2C532.65 192.9 533.75 196.8 533.75 200.9C533.75 207 532.15 212.25 528.95 216.65C525.85 220.95 521.35 224.25 515.45 226.55C509.55 228.85 502.45 230 494.15 230C491.95 230 488.6 229.95 484.1 229.85C479.6 229.65 474.15 229.55 467.75 229.55C463.65 229.55 459.65 229.6 455.75 229.7C451.85 229.7 448.65 229.8 446.15 230V227C449.45 226.8 451.9 226.4 453.5 225.8C455.2 225.2 456.3 224 456.8 222.2C457.4 220.4 457.7 217.7 457.7 214.1V139.7C457.7 136 457.4 133.3 456.8 131.6C456.3 129.8 455.2 128.6 453.5 128C451.9 127.3 449.45 126.9 446.15 126.8V123.8ZM488.15 126.8C484.05 126.8 481.35 127.65 480.05 129.35C478.85 131.05 478.25 134.5 478.25 139.7V214.1C478.25 217.6 478.55 220.25 479.15 222.05C479.75 223.85 480.8 225.05 482.3 225.65C483.8 226.25 486 226.55 488.9 226.55C497.1 226.55 503 224.3 506.6 219.8C510.3 215.2 512.15 208.7 512.15 200.3C512.15 192.6 510.15 186.65 506.15 182.45C502.25 178.25 495.75 176.15 486.65 176.15H473C473 176.15 473 175.75 473 174.95C473 174.05 473 173.6 473 173.6H485.9C491 173.6 494.95 172.5 497.75 170.3C500.55 168 502.45 165 503.45 161.3C504.45 157.5 504.95 153.45 504.95 149.15C504.95 141.75 503.65 136.2 501.05 132.5C498.45 128.7 494.15 126.8 488.15 126.8ZM592.302 150.35C595.402 150.35 597.952 151 599.952 152.3C602.052 153.6 603.602 155.25 604.602 157.25C605.602 159.25 606.102 161.35 606.102 163.55C606.102 166.85 605.102 169.6 603.102 171.8C601.202 174 598.652 175.1 595.452 175.1C592.452 175.1 590.002 174.3 588.102 172.7C586.202 171.1 585.252 168.9 585.252 166.1C585.252 163.6 585.852 161.5 587.052 159.8C588.352 158.1 589.802 156.75 591.402 155.75C590.302 155.15 589.052 154.95 587.652 155.15C585.252 155.35 583.052 156.2 581.052 157.7C579.052 159.2 577.352 161.05 575.952 163.25C574.552 165.45 573.452 167.8 572.652 170.3C571.952 172.8 571.602 175.2 571.602 177.5V214.55C571.602 219.45 572.852 222.75 575.352 224.45C577.852 226.05 581.502 226.85 586.302 226.85V230C584.002 229.9 580.652 229.8 576.252 229.7C571.952 229.5 567.452 229.4 562.752 229.4C558.852 229.4 554.952 229.5 551.052 229.7C547.252 229.8 544.402 229.9 542.502 230V226.85C546.202 226.85 548.802 226.1 550.302 224.6C551.902 223.1 552.702 220.25 552.702 216.05V168.8C552.702 164.3 551.952 161 550.452 158.9C549.052 156.7 546.402 155.6 542.502 155.6V152.45C545.702 152.75 548.802 152.9 551.802 152.9C555.502 152.9 559.002 152.75 562.302 152.45C565.702 152.05 568.802 151.5 571.602 150.8V166.4C572.802 163.6 574.352 161 576.252 158.6C578.252 156.2 580.602 154.25 583.302 152.75C586.102 151.15 589.102 150.35 592.302 150.35ZM629.949 114.2C633.549 114.2 636.499 115.2 638.799 117.2C641.099 119.2 642.249 121.85 642.249 125.15C642.249 128.45 641.099 131.1 638.799 133.1C636.499 135.1 633.549 136.1 629.949 136.1C626.349 136.1 623.399 135.1 621.099 133.1C618.799 131.1 617.649 128.45 617.649 125.15C617.649 121.85 618.799 119.2 621.099 117.2C623.399 115.2 626.349 114.2 629.949 114.2ZM640.449 150.8V216.05C640.449 220.25 641.199 223.1 642.699 224.6C644.299 226.1 646.949 226.85 650.649 226.85V230C648.849 229.9 646.099 229.8 642.399 229.7C638.699 229.5 634.949 229.4 631.149 229.4C627.449 229.4 623.699 229.5 619.899 229.7C616.099 229.8 613.249 229.9 611.349 230V226.85C615.049 226.85 617.649 226.1 619.149 224.6C620.749 223.1 621.549 220.25 621.549 216.05V168.95C621.549 164.35 620.799 161 619.299 158.9C617.899 156.7 615.249 155.6 611.349 155.6V152.45C614.549 152.75 617.649 152.9 620.649 152.9C624.349 152.9 627.849 152.75 631.149 152.45C634.549 152.05 637.649 151.5 640.449 150.8ZM685.992 258.2C680.092 258.2 674.742 257.65 669.942 256.55C665.142 255.45 661.342 253.8 658.542 251.6C655.742 249.5 654.342 246.8 654.342 243.5C654.342 240.3 655.742 237.45 658.542 234.95C661.342 232.45 665.442 230.55 670.842 229.25L671.892 231.65C669.992 232.75 668.542 234.25 667.542 236.15C666.542 238.05 666.042 240.05 666.042 242.15C666.042 246.45 667.992 249.75 671.892 252.05C675.892 254.45 681.192 255.65 687.792 255.65C692.292 255.65 696.442 255.05 700.242 253.85C704.042 252.65 707.092 250.8 709.392 248.3C711.692 245.8 712.842 242.7 712.842 239C712.842 235.9 711.692 233.3 709.392 231.2C707.192 229.1 702.742 228.05 696.042 228.05H686.142C682.442 228.05 679.042 227.65 675.942 226.85C672.942 226.05 670.542 224.75 668.742 222.95C666.942 221.15 666.042 218.65 666.042 215.45C666.042 211.55 667.642 208.05 670.842 204.95C674.042 201.75 679.042 198.65 685.842 195.65L687.492 197C684.992 198.3 682.742 199.7 680.742 201.2C678.842 202.7 677.892 204.6 677.892 206.9C677.892 210.1 680.092 211.7 684.492 211.7H701.442C706.642 211.7 711.242 212.35 715.242 213.65C719.342 214.95 722.592 217 724.992 219.8C727.392 222.6 728.592 226.3 728.592 230.9C728.592 235.7 727.042 240.15 723.942 244.25C720.842 248.45 716.142 251.8 709.842 254.3C703.642 256.9 695.692 258.2 685.992 258.2ZM687.342 198.05C681.942 198.05 677.042 197.25 672.642 195.65C668.342 193.95 664.942 191.35 662.442 187.85C659.942 184.25 658.692 179.7 658.692 174.2C658.692 168.7 659.942 164.2 662.442 160.7C664.942 157.2 668.342 154.6 672.642 152.9C677.042 151.2 681.942 150.35 687.342 150.35C692.842 150.35 697.742 151.2 702.042 152.9C706.342 154.6 709.742 157.2 712.242 160.7C714.742 164.2 715.992 168.7 715.992 174.2C715.992 179.7 714.742 184.25 712.242 187.85C709.742 191.35 706.342 193.95 702.042 195.65C697.742 197.25 692.842 198.05 687.342 198.05ZM687.342 195.35C690.342 195.35 692.692 193.85 694.392 190.85C696.192 187.75 697.092 182.2 697.092 174.2C697.092 166.2 696.192 160.7 694.392 157.7C692.692 154.6 690.342 153.05 687.342 153.05C684.342 153.05 681.942 154.6 680.142 157.7C678.442 160.7 677.592 166.2 677.592 174.2C677.592 182.2 678.442 187.75 680.142 190.85C681.942 193.85 684.342 195.35 687.342 195.35ZM709.992 163.1L707.142 162.05C708.642 158.35 711.092 155.25 714.492 152.75C717.892 150.15 721.492 148.85 725.292 148.85C728.192 148.85 730.442 149.65 732.042 151.25C733.742 152.85 734.592 155.1 734.592 158C734.592 161 733.792 163.2 732.192 164.6C730.592 166 728.842 166.7 726.942 166.7C725.242 166.7 723.692 166.15 722.292 165.05C720.892 163.85 720.092 162.05 719.892 159.65C719.692 157.15 720.492 154.05 722.292 150.35L723.792 150.95C719.892 152.45 716.992 154.1 715.092 155.9C713.192 157.7 711.492 160.1 709.992 163.1ZM767.28 112.55V165.65C769.78 160.05 773.23 156.1 777.63 153.8C782.13 151.5 786.98 150.35 792.18 150.35C796.28 150.35 799.63 150.9 802.23 152C804.83 153.1 806.93 154.5 808.53 156.2C810.23 158.1 811.43 160.55 812.13 163.55C812.93 166.55 813.33 170.6 813.33 175.7V216.05C813.33 220.25 814.08 223.1 815.58 224.6C817.18 226.1 819.83 226.85 823.53 226.85V230C821.73 229.9 818.98 229.8 815.28 229.7C811.58 229.5 807.93 229.4 804.33 229.4C800.73 229.4 797.18 229.5 793.68 229.7C790.18 229.8 787.53 229.9 785.73 230V226.85C788.93 226.85 791.18 226.1 792.48 224.6C793.78 223.1 794.43 220.25 794.43 216.05V170.6C794.43 167.9 794.18 165.5 793.68 163.4C793.18 161.2 792.18 159.5 790.68 158.3C789.28 157 787.13 156.35 784.23 156.35C781.03 156.35 778.13 157.25 775.53 159.05C773.03 160.75 771.03 163.2 769.53 166.4C768.03 169.5 767.28 173.05 767.28 177.05V216.05C767.28 220.25 767.93 223.1 769.23 224.6C770.63 226.1 772.88 226.85 775.98 226.85V230C774.28 229.9 771.73 229.8 768.33 229.7C765.03 229.5 761.58 229.4 757.98 229.4C754.38 229.4 750.63 229.5 746.73 229.7C742.93 229.8 740.08 229.9 738.18 230V226.85C741.88 226.85 744.48 226.1 745.98 224.6C747.58 223.1 748.38 220.25 748.38 216.05V130.55C748.38 126.05 747.63 122.75 746.13 120.65C744.73 118.45 742.08 117.35 738.18 117.35V114.2C741.38 114.5 744.48 114.65 747.48 114.65C751.28 114.65 754.83 114.5 758.13 114.2C761.43 113.8 764.48 113.25 767.28 112.55ZM857.814 127.85V152.6H877.014V155.6H857.814V215.3C857.814 218.9 858.464 221.45 859.764 222.95C861.064 224.45 862.914 225.2 865.314 225.2C867.614 225.2 869.714 224.35 871.614 222.65C873.514 220.85 875.214 217.9 876.714 213.8L879.414 215C877.914 219.9 875.564 224 872.364 227.3C869.264 230.5 864.864 232.1 859.164 232.1C855.764 232.1 852.864 231.65 850.464 230.75C848.164 229.95 846.164 228.75 844.464 227.15C842.264 224.85 840.764 222.1 839.964 218.9C839.264 215.7 838.914 211.45 838.914 206.15V155.6H825.714V152.6H838.914V131.75C842.514 131.65 845.864 131.3 848.964 130.7C852.064 130.1 855.014 129.15 857.814 127.85ZM996.573 123.8C996.173 128.1 995.873 132.25 995.673 136.25C995.573 140.25 995.523 143.3 995.523 145.4C995.523 147.7 995.573 149.85 995.673 151.85C995.773 153.85 995.873 155.6 995.973 157.1H992.523C991.423 149.6 989.923 143.7 988.023 139.4C986.123 135 983.573 131.9 980.373 130.1C977.173 128.2 972.923 127.25 967.623 127.25H961.173C958.173 127.25 955.873 127.5 954.273 128C952.673 128.5 951.573 129.55 950.973 131.15C950.473 132.75 950.223 135.2 950.223 138.5V213.5C950.223 217.3 950.623 220.15 951.423 222.05C952.223 223.95 953.773 225.2 956.073 225.8C958.373 226.4 961.673 226.75 965.973 226.85V230C963.073 229.8 959.323 229.7 954.723 229.7C950.123 229.6 945.373 229.55 940.473 229.55C936.273 229.55 932.223 229.6 928.323 229.7C924.423 229.7 921.023 229.8 918.123 230V227C921.423 226.8 923.873 226.4 925.473 225.8C927.173 225.2 928.273 224 928.773 222.2C929.373 220.4 929.673 217.7 929.673 214.1V139.7C929.673 136 929.373 133.3 928.773 131.6C928.273 129.8 927.173 128.6 925.473 128C923.873 127.3 921.423 126.9 918.123 126.8V123.8C922.123 123.9 926.323 124 930.723 124.1C935.223 124.1 939.623 124.15 943.923 124.25C948.323 124.25 952.373 124.25 956.073 124.25C959.873 124.25 962.923 124.25 965.223 124.25C969.823 124.25 975.023 124.25 980.823 124.25C986.723 124.15 991.973 124 996.573 123.8ZM973.923 176C973.923 176 973.923 176.5 973.923 177.5C973.923 178.5 973.923 179 973.923 179H945.723C945.723 179 945.723 178.5 945.723 177.5C945.723 176.5 945.723 176 945.723 176H973.923ZM977.373 156.2C976.973 161.9 976.773 166.25 976.773 169.25C976.873 172.25 976.923 175 976.923 177.5C976.923 180 976.973 182.75 977.073 185.75C977.173 188.75 977.423 193.1 977.823 198.8H974.373C973.973 195.4 973.223 192.2 972.123 189.2C971.023 186.1 969.323 183.65 967.023 181.85C964.823 179.95 961.623 179 957.423 179V176C960.523 176 963.073 175.35 965.073 174.05C967.073 172.75 968.623 171.1 969.723 169.1C970.923 167 971.823 164.85 972.423 162.65C973.123 160.35 973.623 158.2 973.923 156.2H977.373ZM1022.87 231.05C1018.57 231.05 1014.92 230.25 1011.92 228.65C1008.92 226.95 1006.67 224.7 1005.17 221.9C1003.67 219 1002.92 215.8 1002.92 212.3C1002.92 208 1003.92 204.5 1005.92 201.8C1007.92 199 1010.47 196.8 1013.57 195.2C1016.77 193.5 1020.12 192.1 1023.62 191C1027.12 189.8 1030.42 188.7 1033.52 187.7C1036.62 186.6 1039.17 185.35 1041.17 183.95C1043.17 182.55 1044.17 180.7 1044.17 178.4V167.45C1044.17 164.25 1043.67 161.65 1042.67 159.65C1041.77 157.55 1040.37 156 1038.47 155C1036.67 153.9 1034.37 153.35 1031.57 153.35C1029.47 153.35 1027.27 153.65 1024.97 154.25C1022.67 154.85 1020.77 156 1019.27 157.7C1021.87 158.4 1023.87 159.7 1025.27 161.6C1026.77 163.5 1027.52 165.8 1027.52 168.5C1027.52 171.6 1026.47 174.05 1024.37 175.85C1022.37 177.55 1019.82 178.4 1016.72 178.4C1013.42 178.4 1010.92 177.35 1009.22 175.25C1007.52 173.15 1006.67 170.7 1006.67 167.9C1006.67 165.1 1007.37 162.8 1008.77 161C1010.17 159.1 1012.12 157.4 1014.62 155.9C1017.12 154.2 1020.32 152.85 1024.22 151.85C1028.12 150.85 1032.37 150.35 1036.97 150.35C1041.37 150.35 1045.27 150.85 1048.67 151.85C1052.07 152.75 1054.97 154.4 1057.37 156.8C1059.77 159.1 1061.32 161.95 1062.02 165.35C1062.72 168.75 1063.07 172.9 1063.07 177.8V218.9C1063.07 221.4 1063.37 223.2 1063.97 224.3C1064.57 225.3 1065.52 225.8 1066.82 225.8C1067.82 225.8 1068.77 225.55 1069.67 225.05C1070.57 224.55 1071.57 223.85 1072.67 222.95L1074.32 225.5C1072.12 227.2 1069.82 228.55 1067.42 229.55C1065.02 230.55 1062.12 231.05 1058.72 231.05C1055.22 231.05 1052.42 230.55 1050.32 229.55C1048.32 228.55 1046.82 227.1 1045.82 225.2C1044.92 223.3 1044.42 221.05 1044.32 218.45C1041.92 222.45 1038.97 225.55 1035.47 227.75C1031.97 229.95 1027.77 231.05 1022.87 231.05ZM1031.87 222.65C1034.27 222.65 1036.47 222 1038.47 220.7C1040.57 219.4 1042.47 217.45 1044.17 214.85V184.55C1043.17 186.05 1041.72 187.4 1039.82 188.6C1038.02 189.8 1036.07 191 1033.97 192.2C1031.87 193.4 1029.87 194.8 1027.97 196.4C1026.17 197.9 1024.62 199.8 1023.32 202.1C1022.12 204.3 1021.52 207.15 1021.52 210.65C1021.52 214.55 1022.47 217.55 1024.37 219.65C1026.27 221.65 1028.77 222.65 1031.87 222.65ZM1131.43 150.35C1135.33 150.35 1138.58 150.9 1141.18 152C1143.88 153.1 1145.98 154.5 1147.48 156.2C1149.28 158.1 1150.53 160.65 1151.23 163.85C1151.93 166.95 1152.28 170.9 1152.28 175.7V216.05C1152.28 220.25 1152.98 223.1 1154.38 224.6C1155.88 226.1 1158.38 226.85 1161.88 226.85V230C1160.08 229.9 1157.38 229.8 1153.78 229.7C1150.18 229.5 1146.68 229.4 1143.28 229.4C1139.68 229.4 1136.18 229.5 1132.78 229.7C1129.48 229.8 1126.98 229.9 1125.28 230V226.85C1128.18 226.85 1130.23 226.1 1131.43 224.6C1132.73 223.1 1133.38 220.25 1133.38 216.05V170.6C1133.38 167.9 1133.18 165.5 1132.78 163.4C1132.38 161.2 1131.53 159.5 1130.23 158.3C1128.93 157 1126.93 156.35 1124.23 156.35C1121.13 156.35 1118.33 157.25 1115.83 159.05C1113.33 160.85 1111.33 163.35 1109.83 166.55C1108.43 169.65 1107.73 173.15 1107.73 177.05V216.05C1107.73 220.25 1108.33 223.1 1109.53 224.6C1110.73 226.1 1112.83 226.85 1115.83 226.85V230C1114.13 229.9 1111.63 229.8 1108.33 229.7C1105.13 229.5 1101.83 229.4 1098.43 229.4C1094.73 229.4 1090.98 229.5 1087.18 229.7C1083.38 229.8 1080.53 229.9 1078.63 230V226.85C1082.33 226.85 1084.93 226.1 1086.43 224.6C1088.03 223.1 1088.83 220.25 1088.83 216.05V168.8C1088.83 164.3 1088.08 161 1086.58 158.9C1085.18 156.7 1082.53 155.6 1078.63 155.6V152.45C1081.83 152.75 1084.93 152.9 1087.93 152.9C1091.63 152.9 1095.13 152.75 1098.43 152.45C1101.83 152.05 1104.93 151.5 1107.73 150.8V165.8C1110.23 160.3 1113.58 156.35 1117.78 153.95C1121.98 151.55 1126.53 150.35 1131.43 150.35ZM1176.58 150.35C1180.48 150.35 1183.73 150.9 1186.33 152C1189.03 153.1 1191.13 154.5 1192.63 156.2C1194.43 158.1 1195.68 160.65 1196.38 163.85C1197.08 166.95 1197.43 170.9 1197.43 175.7V216.05C1197.43 220.25 1198.18 223.1 1199.68 224.6C1201.28 226.1 1203.93 226.85 1207.63 226.85V230C1205.83 229.9 1203.03 229.8 1199.23 229.7C1195.53 229.5 1191.93 229.4 1188.43 229.4C1184.83 229.4 1181.33 229.5 1177.93 229.7C1174.63 229.8 1172.13 229.9 1170.43 230V226.85C1173.33 226.85 1175.38 226.1 1176.58 224.6C1177.88 223.1 1178.53 220.25 1178.53 216.05V170.6C1178.53 167.9 1178.28 165.5 1177.78 163.4C1177.38 161.2 1176.48 159.5 1175.08 158.3C1173.68 157 1171.58 156.35 1168.78 156.35C1165.68 156.35 1162.88 157.3 1160.38 159.2C1157.88 161.1 1155.88 163.65 1154.38 166.85C1152.98 169.95 1152.23 173.45 1152.13 177.35L1151.38 166.55C1154.08 160.35 1157.68 156.1 1162.18 153.8C1166.68 151.5 1171.48 150.35 1176.58 150.35ZM1232.15 114.2C1235.75 114.2 1238.7 115.2 1241 117.2C1243.3 119.2 1244.45 121.85 1244.45 125.15C1244.45 128.45 1243.3 131.1 1241 133.1C1238.7 135.1 1235.75 136.1 1232.15 136.1C1228.55 136.1 1225.6 135.1 1223.3 133.1C1221 131.1 1219.85 128.45 1219.85 125.15C1219.85 121.85 1221 119.2 1223.3 117.2C1225.6 115.2 1228.55 114.2 1232.15 114.2ZM1242.65 150.8V216.05C1242.65 220.25 1243.4 223.1 1244.9 224.6C1246.5 226.1 1249.15 226.85 1252.85 226.85V230C1251.05 229.9 1248.3 229.8 1244.6 229.7C1240.9 229.5 1237.15 229.4 1233.35 229.4C1229.65 229.4 1225.9 229.5 1222.1 229.7C1218.3 229.8 1215.45 229.9 1213.55 230V226.85C1217.25 226.85 1219.85 226.1 1221.35 224.6C1222.95 223.1 1223.75 220.25 1223.75 216.05V168.95C1223.75 164.35 1223 161 1221.5 158.9C1220.1 156.7 1217.45 155.6 1213.55 155.6V152.45C1216.75 152.75 1219.85 152.9 1222.85 152.9C1226.55 152.9 1230.05 152.75 1233.35 152.45C1236.75 152.05 1239.85 151.5 1242.65 150.8ZM1287.89 112.55V216.05C1287.89 220.25 1288.64 223.1 1290.14 224.6C1291.74 226.1 1294.39 226.85 1298.09 226.85V230C1296.29 229.9 1293.54 229.8 1289.84 229.7C1286.24 229.5 1282.54 229.4 1278.74 229.4C1275.04 229.4 1271.24 229.5 1267.34 229.7C1263.54 229.8 1260.69 229.9 1258.79 230V226.85C1262.49 226.85 1265.09 226.1 1266.59 224.6C1268.19 223.1 1268.99 220.25 1268.99 216.05V130.55C1268.99 126.05 1268.29 122.75 1266.89 120.65C1265.49 118.45 1262.79 117.35 1258.79 117.35V114.2C1261.99 114.5 1265.09 114.65 1268.09 114.65C1271.89 114.65 1275.44 114.5 1278.74 114.2C1282.04 113.8 1285.09 113.25 1287.89 112.55ZM1377.1 152.45V155.6C1375.2 156 1373.4 157.05 1371.7 158.75C1370.1 160.45 1368.55 163.45 1367.05 167.75L1344.85 228.65L1340.2 235.7L1309.3 164C1307.4 160.2 1305.6 157.85 1303.9 156.95C1302.2 156.05 1300.8 155.6 1299.7 155.6V152.45C1302.6 152.75 1305.6 153 1308.7 153.2C1311.9 153.3 1315.1 153.35 1318.3 153.35C1322 153.35 1325.55 153.25 1328.95 153.05C1332.45 152.85 1335.7 152.65 1338.7 152.45V155.6C1336.4 155.6 1334.35 155.75 1332.55 156.05C1330.75 156.35 1329.55 157.2 1328.95 158.6C1328.45 159.9 1328.85 162.2 1330.15 165.5L1348.9 211.25L1347.7 211.85L1360.9 176.15C1362.6 171.45 1363.3 167.65 1363 164.75C1362.7 161.85 1361.6 159.65 1359.7 158.15C1357.8 156.65 1355.2 155.8 1351.9 155.6V152.45C1353.5 152.55 1355.1 152.65 1356.7 152.75C1358.3 152.85 1359.85 152.95 1361.35 153.05C1362.85 153.05 1364.3 153.05 1365.7 153.05C1367.8 153.05 1369.85 153 1371.85 152.9C1373.95 152.8 1375.7 152.65 1377.1 152.45ZM1344.85 228.65L1339.15 243.8C1338.25 246.3 1337.25 248.4 1336.15 250.1C1335.15 251.9 1334 253.35 1332.7 254.45C1331.2 255.75 1329.35 256.7 1327.15 257.3C1325.05 257.9 1322.7 258.2 1320.1 258.2C1317.8 258.2 1315.55 257.8 1313.35 257C1311.25 256.2 1309.45 255 1307.95 253.4C1306.55 251.8 1305.85 249.7 1305.85 247.1C1305.85 244.3 1306.8 242.05 1308.7 240.35C1310.6 238.65 1313.2 237.8 1316.5 237.8C1319.4 237.8 1321.75 238.5 1323.55 239.9C1325.45 241.4 1326.4 243.6 1326.4 246.5C1326.4 248.4 1325.85 250.1 1324.75 251.6C1323.65 253.1 1322.1 254.25 1320.1 255.05C1320.6 255.15 1321.05 255.2 1321.45 255.2C1321.95 255.3 1322.35 255.35 1322.65 255.35C1325.55 255.35 1328.15 254.4 1330.45 252.5C1332.75 250.6 1334.6 247.6 1336 243.5L1341.4 228.65H1344.85Z" fill="#0C145D"/>
<path d="M591.053 341V278H617.603C624.323 278 630.233 279.32 635.333 281.96C640.493 284.6 644.483 288.29 647.303 293.03C650.183 297.77 651.623 303.26 651.623 309.5C651.623 315.74 650.183 321.23 647.303 325.97C644.483 330.71 640.493 334.4 635.333 337.04C630.233 339.68 624.323 341 617.603 341H591.053ZM600.053 333.17H617.063C622.283 333.17 626.783 332.18 630.563 330.2C634.403 328.22 637.373 325.46 639.473 321.92C641.573 318.32 642.623 314.18 642.623 309.5C642.623 304.76 641.573 300.62 639.473 297.08C637.373 293.54 634.403 290.78 630.563 288.8C626.783 286.82 622.283 285.83 617.063 285.83H600.053V333.17ZM690.698 305.18H723.098V312.83H690.698V305.18ZM691.508 333.17H728.228V341H682.508V278H726.968V285.83H691.508V333.17ZM759.901 341V278H767.281L808.951 329.75H805.081V278H814.081V341H806.701L765.031 289.25H768.901V341H759.901ZM862.548 341V285.83H840.948V278H893.058V285.83H871.458V341H862.548ZM919.961 341V278H928.961V341H919.961ZM983.282 341.72C978.482 341.72 973.892 341 969.512 339.56C965.132 338.06 961.682 336.14 959.162 333.8L962.492 326.78C964.892 328.88 967.952 330.62 971.672 332C975.392 333.38 979.262 334.07 983.282 334.07C986.942 334.07 989.912 333.65 992.192 332.81C994.472 331.97 996.152 330.83 997.232 329.39C998.312 327.89 998.852 326.21 998.852 324.35C998.852 322.19 998.132 320.45 996.692 319.13C995.312 317.81 993.482 316.76 991.202 315.98C988.982 315.14 986.522 314.42 983.822 313.82C981.122 313.22 978.392 312.53 975.632 311.75C972.932 310.91 970.442 309.86 968.162 308.6C965.942 307.34 964.142 305.66 962.762 303.56C961.382 301.4 960.692 298.64 960.692 295.28C960.692 292.04 961.532 289.07 963.212 286.37C964.952 283.61 967.592 281.42 971.132 279.8C974.732 278.12 979.292 277.28 984.812 277.28C988.472 277.28 992.102 277.76 995.702 278.72C999.302 279.68 1002.42 281.06 1005.06 282.86L1002.09 290.06C999.392 288.26 996.542 286.97 993.542 286.19C990.542 285.35 987.632 284.93 984.812 284.93C981.272 284.93 978.362 285.38 976.082 286.28C973.802 287.18 972.122 288.38 971.042 289.88C970.022 291.38 969.512 293.06 969.512 294.92C969.512 297.14 970.202 298.91 971.582 300.23C973.022 301.55 974.852 302.6 977.072 303.38C979.352 304.16 981.842 304.88 984.542 305.54C987.242 306.14 989.942 306.83 992.642 307.61C995.402 308.39 997.892 309.41 1000.11 310.67C1002.39 311.93 1004.22 313.61 1005.6 315.71C1006.98 317.81 1007.67 320.51 1007.67 323.81C1007.67 326.99 1006.8 329.96 1005.06 332.72C1003.32 335.42 1000.62 337.61 996.962 339.29C993.362 340.91 988.802 341.72 983.282 341.72ZM1049.55 341V285.83H1027.95V278H1080.06V285.83H1058.46V341H1049.55ZM1106.96 341V278H1131.53C1137.05 278 1141.76 278.87 1145.66 280.61C1149.56 282.35 1152.56 284.87 1154.66 288.17C1156.76 291.47 1157.81 295.4 1157.81 299.96C1157.81 304.52 1156.76 308.45 1154.66 311.75C1152.56 314.99 1149.56 317.48 1145.66 319.22C1141.76 320.96 1137.05 321.83 1131.53 321.83H1111.91L1115.96 317.69V341H1106.96ZM1149.08 341L1133.06 318.14H1142.69L1158.89 341H1149.08ZM1115.96 318.59L1111.91 314.18H1131.26C1137.02 314.18 1141.37 312.95 1144.31 310.49C1147.31 307.97 1148.81 304.46 1148.81 299.96C1148.81 295.46 1147.31 291.98 1144.31 289.52C1141.37 287.06 1137.02 285.83 1131.26 285.83H1111.91L1115.96 281.33V318.59ZM1203.79 341V316.88L1205.86 322.46L1178.77 278H1188.4L1211.17 315.53H1205.95L1228.81 278H1237.72L1210.72 322.46L1212.7 316.88V341H1203.79Z" fill="#0C145D"/>
<path d="M378.437 339.062C381.471 336.425 400.72 327.939 415.754 323.242C430.023 318.784 438.108 316.247 452.767 313.684C473.603 310.041 485.708 310.201 506.77 308.74C534.319 306.829 588.077 309.07 578.975 310.388C569.873 311.707 539.864 313.117 518.298 315.662C502.897 317.479 494.466 317.997 479.161 320.605C460.473 323.79 453.522 324.998 435.474 331.152C427.97 333.711 413.109 338.675 399.977 346.313C376.387 360.034 368.425 373.009 369.032 369.384C369.639 365.758 370.496 359.566 372.369 353.564C374.208 347.672 375.403 341.699 378.437 339.062Z" fill="#0C145D"/>
<path d="M1233 312C1233 312 1294.26 312.211 1333.41 314.834C1373.69 317.533 1436 326 1436 326L1233 312Z" fill="#0C145D"/>
<defs>
<linearGradient id="paint0_linear_246_3" x1="214" y1="0.00012207" x2="214" y2="460.703" gradientUnits="userSpaceOnUse">
<stop stop-color="#394293"/>
<stop offset="1" stop-color="#0C145D"/>
</linearGradient>
</defs>
</svg>
