<svg width="542" height="542" viewBox="0 0 542 542" fill="none" xmlns="http://www.w3.org/2000/svg">
<rect width="542" height="542" fill="#004C4C"/>
<path d="M155.084 67.4803C128.317 70.8991 105.386 86.5756 93.8788 109.173C88.3753 119.846 83.3722 136.523 81.6211 149.782C80.3703 159.204 81.1208 190.307 82.8719 200.063C87.1245 223.828 93.8788 247.76 101.884 266.772C103.718 271.108 105.886 276.528 106.72 278.862C107.554 281.114 110.389 288.118 112.974 294.289C119.311 309.215 130.735 341.652 136.239 360.163C139.491 371.337 144.327 389.765 149.247 410.611C157.919 446.801 164.673 463.311 173.929 470.565C178.015 473.818 186.186 476.319 190.439 475.569C196.443 474.568 202.697 471.149 207.616 466.146C214.371 459.225 219.207 451.47 229.38 431.458C234.3 421.702 239.053 412.613 239.887 411.278C240.804 410.028 242.972 406.692 244.723 403.941C248.726 397.687 262.651 383.678 270.989 377.507C276.493 373.421 292.92 363.916 306.011 357.161C321.688 349.156 343.118 336.315 354.041 328.393C368.133 318.304 385.227 302.127 395.734 289.286C410.326 271.358 419.666 252.096 424.419 230.332C426.503 220.659 426.753 204.733 424.919 196.227C422.584 185.471 417.831 173.38 414.913 170.962C413.245 169.544 413.162 169.461 415.747 176.799C420.5 190.557 420.249 215.323 415.079 236.336C410.827 254.097 405.74 265.687 396.068 280.363C383.143 299.876 357.377 321.222 325.607 338.566C319.937 341.652 294.421 354.326 293.92 354.326C292.586 354.326 268.488 366.5 262.818 370.003C249.059 378.508 236.885 390.099 228.546 402.273C226.211 405.775 224.294 408.777 224.294 408.944C224.294 409.194 223.376 410.778 222.376 412.529C221.292 414.197 217.289 421.618 213.537 428.956C202.947 449.469 194.859 459.392 188.688 459.392C184.185 459.392 179.682 454.972 176.847 447.718C176.18 446.134 175.18 443.632 174.596 442.298C172.761 437.962 169.426 426.788 167.258 417.699C157.002 374.839 151.998 356.161 143.827 329.311C140.324 317.553 134.571 302.21 124.648 278.029C113.474 250.595 106.97 228.831 102.801 204.649C100.883 193.642 100.633 189.807 100.55 172.963C100.55 155.952 100.716 152.784 102.467 145.029C105.719 130.27 109.805 119.68 116.226 109.59C120.312 103.169 122.48 100.835 129.985 94.8308C141.825 85.3248 151.832 81.6559 167.842 81.0722C181.183 80.4885 195.275 82.6565 208.45 87.2427C218.04 90.5781 224.711 93.0797 235.134 97.0822C248.225 102.169 265.736 108.006 279.161 111.591C288.667 114.26 295.088 116.344 316.851 124.182C327.608 128.018 344.869 132.521 375.638 139.609C402.738 145.779 418.999 153.617 430.589 165.875C437.844 173.63 441.346 180.801 443.264 192.142C445.348 204.733 443.847 222.827 439.345 237.503C437.01 245.258 429.672 264.437 426.42 271.358C424.919 274.526 420.666 283.699 416.914 291.704C399.737 328.477 388.396 362.748 376.055 415.198C368.634 446.967 361.212 461.143 353.041 459.559C349.955 458.975 343.285 452.638 339.115 446.217C336.113 441.631 329.943 430.374 322.855 416.448C319.353 409.611 308.763 394.768 304.01 389.932C298.924 384.929 289.668 378.675 285.415 377.341C284.164 376.924 282.58 377.507 279.828 379.509C277.744 380.926 275.993 382.427 275.993 382.761C275.993 383.011 278.244 384.678 280.912 386.346C286.666 389.848 292.836 396.352 298.507 404.858C303.51 412.279 304.761 414.364 311.598 428.039C328.192 461.06 335.863 470.649 348.788 474.735C360.462 478.404 371.886 471.399 379.14 456.056C383.893 446.05 387.896 433.125 393.983 408.11C403.072 371.003 411.327 343.153 417.581 328.477C418.081 327.309 419.499 323.724 420.75 320.555C422 317.303 424.085 312.383 425.336 309.465C426.67 306.63 427.754 304.128 427.754 303.961C427.754 303.795 431.173 296.707 435.259 288.118C444.431 269.023 450.101 255.681 454.354 242.757C460.024 225.579 460.691 221.493 460.691 203.815C460.608 188.723 460.525 187.639 458.356 181.301C448.684 153.534 425.669 139.609 376.472 132.021C336.447 125.85 334.196 125.433 317.268 120.347C305.344 116.845 272.574 104.837 263.735 100.751C261.734 99.9173 259.983 99.1668 259.732 99.1668C259.482 99.1668 252.144 95.6646 243.305 91.3286C216.122 78.0703 201.029 72.1499 186.77 69.1481C177.681 67.2302 163.005 66.3963 155.084 67.4803ZM217.623 144.945C207.033 148.197 200.695 158.954 203.364 169.044C207.533 184.303 227.045 189.223 237.885 177.716C243.556 171.629 244.973 162.039 241.304 154.952C237.385 147.364 225.795 142.444 217.623 144.945ZM319.937 162.54C311.515 165.041 306.178 175.381 308.513 184.22C311.515 195.394 323.856 200.73 334.863 195.56C348.288 189.306 347.37 168.877 333.362 163.04C330.026 161.622 323.772 161.372 319.937 162.54ZM204.198 189.557C199.111 190.891 192.69 195.143 190.272 198.729C182.768 209.819 185.186 237.086 196.776 271.191C199.028 277.862 201.196 284.032 201.696 284.866C202.196 285.7 203.948 289.702 205.532 293.788C208.033 299.959 215.621 315.385 218.874 320.889C224.711 330.812 231.048 339.817 241.471 353.409C241.971 354.076 242.805 354.326 243.305 353.993C243.889 353.659 243.639 352.158 242.638 349.49C239.97 342.652 237.719 330.978 236.718 318.637C235.634 305.296 236.134 266.021 237.552 255.931C239.47 242.173 244.64 223.411 246.557 223.411C246.891 223.411 249.726 226.079 252.895 229.415C255.98 232.667 258.565 235.168 258.732 235.002C261.984 230.332 264.402 227.83 267.737 225.746C269.989 224.412 271.823 223.078 271.823 222.827C271.823 222.577 270.239 220.659 268.321 218.491C266.32 216.24 262.401 210.486 259.482 205.65C250.06 189.807 242.555 185.971 228.546 189.89C222.542 191.641 222.459 191.641 216.205 189.974C208.951 188.139 209.284 188.139 204.198 189.557ZM305.678 203.315C300.591 205.4 298.59 207.234 294.671 213.655C293.003 216.49 290.418 220.242 289.084 221.994L286.666 225.079L289.501 228.247C291.002 229.915 292.836 232.583 293.42 234.084C294.754 237.17 295.505 237.336 298.924 235.085C300.341 234.168 302.092 233.417 302.843 233.417C307.012 233.417 311.848 249.094 314.016 269.44C316.268 291.454 314.85 314.218 310.181 332.813C308.263 340.151 308.179 341.818 309.43 341.818C311.765 341.818 323.272 327.393 329.776 316.386C342.534 294.622 350.956 272.859 355.959 248.593C359.378 232 359.545 219.325 356.543 212.988C352.54 204.483 346.203 201.064 336.614 202.148C329.359 202.982 324.273 202.982 316.018 202.231C310.848 201.814 309.097 201.981 305.678 203.315ZM270.573 228.581C263.485 231.083 260.066 239.755 263.401 246.842C266.07 252.429 269.989 254.681 276.91 254.681C283.664 254.681 286.249 253.18 289.167 247.509C291.586 242.923 291.169 237.837 288 233.334C284.665 228.498 276.91 226.413 270.573 228.581ZM259.649 259.934C255.23 262.019 252.978 265.02 250.977 271.524C248.892 278.195 248.809 287.951 250.643 295.289C252.311 301.96 253.645 303.544 255.897 301.46C257.481 300.042 257.564 300.126 258.482 304.879C260.483 315.052 261.15 317.47 264.319 326.392C269.072 339.734 273.908 351.241 274.909 351.574C277.66 352.492 290.335 321.556 293.503 305.963C294.504 301.293 295.171 299.375 295.588 300.292C296.505 302.627 298.173 302.044 300.341 298.625C302.009 295.956 302.259 294.289 302.593 285.366C302.926 272.358 301.592 267.439 296.422 262.686C292.336 258.933 288.667 257.933 282.83 258.85C278.327 259.6 276.993 259.6 268.905 258.85C264.152 258.433 262.484 258.683 259.649 259.934Z" fill="white"/>
</svg>
